<?xml version="1.0" encoding="UTF-8"?>
<svg version="1.1" xmlns="http://www.w3.org/2000/svg" width="76" height="126">
<path d="M0 0 C0 9.24 0 18.48 0 28 C-6.93 31.96 -13.86 35.92 -21 40 C-18.57102195 42.42897805 -16.90640483 43.78742118 -14.0234375 45.4453125 C-13.270625 45.88230469 -12.5178125 46.31929687 -11.7421875 46.76953125 C-10.57042969 47.44048828 -10.57042969 47.44048828 -9.375 48.125 C-7.81957716 49.02216383 -6.26485138 49.92053763 -4.7109375 50.8203125 C-4.02306152 51.21492676 -3.33518555 51.60954102 -2.62646484 52.01611328 C-1 53 -1 53 0 54 C0.08767112 56.07262076 0.10695873 58.14820294 0.09765625 60.22265625 C0.09443359 61.48271484 0.09121094 62.74277344 0.08789062 64.04101562 C0.07953403 65.38151109 0.07106907 66.72200588 0.0625 68.0625 C0.0574866 69.40689942 0.05292342 70.7513006 0.04882812 72.09570312 C0.03699488 75.39717941 0.02050971 78.69856803 0 82 C-1.40755208 82.79557292 -2.81510417 83.59114583 -4.22265625 84.38671875 C-5.14344971 84.9072583 -6.06424316 85.42779785 -7.01293945 85.96411133 C-9.06194133 87.12205739 -11.11126275 88.27943819 -13.16088867 89.4362793 C-18.64087944 92.53035545 -24.11504954 95.63395337 -29.578125 98.7578125 C-30.62347412 99.35376221 -31.66882324 99.94971191 -32.74584961 100.5637207 C-34.76944924 101.71769285 -36.79114294 102.8750145 -38.81079102 104.03588867 C-39.72530029 104.55642822 -40.63980957 105.07696777 -41.58203125 105.61328125 C-42.38874268 106.07516846 -43.1954541 106.53705566 -44.02661133 107.01293945 C-46 108 -46 108 -48 108 C-48.26210888 103.62614201 -48.42144886 99.25430191 -48.5625 94.875 C-48.63791016 93.6375 -48.71332031 92.4 -48.79101562 91.125 C-49.00786089 82.16206237 -49.00786089 82.16206237 -46.20483398 78.93017578 C-43.87097113 77.35113102 -41.56748925 76.1551509 -39 75 C-37.75446893 74.3025026 -36.51304538 73.59757942 -35.27734375 72.8828125 C-34.17519531 72.30273438 -33.07304688 71.72265625 -31.9375 71.125 C-30.24947266 70.23167969 -30.24947266 70.23167969 -28.52734375 69.3203125 C-27.69332031 68.88460937 -26.85929687 68.44890625 -26 68 C-26.73319458 67.56917114 -26.73319458 67.56917114 -27.48120117 67.12963867 C-29.71677212 65.81582711 -31.95213764 64.50166642 -34.1875 63.1875 C-34.95642578 62.73568359 -35.72535156 62.28386719 -36.51757812 61.81835938 C-37.26845703 61.37685547 -38.01933594 60.93535156 -38.79296875 60.48046875 C-39.82200317 59.87561646 -39.82200317 59.87561646 -40.87182617 59.25854492 C-41.57412354 58.8432251 -42.2764209 58.42790527 -43 58 C-44.35254883 57.37931641 -44.35254883 57.37931641 -45.73242188 56.74609375 C-48 55 -48 55 -48.56762695 52.08911133 C-48.54144287 50.9317749 -48.51525879 49.77443848 -48.48828125 48.58203125 C-48.47216797 47.32841797 -48.45605469 46.07480469 -48.43945312 44.78320312 C-48.39755859 43.47287109 -48.35566406 42.16253906 -48.3125 40.8125 C-48.28741661 39.47725471 -48.26460348 38.14196471 -48.24414062 36.80664062 C-48.18511522 33.53663293 -48.10281476 30.26887667 -48 27 C-44.62492196 28.06700033 -41.48931688 29.10853043 -38.45703125 30.9453125 C-37.55887695 31.47705078 -37.55887695 31.47705078 -36.64257812 32.01953125 C-35.41048245 32.76378541 -34.17871768 33.50858763 -32.94726562 34.25390625 C-29.23741964 36.47596283 -29.23741964 36.47596283 -25 37 C-25.07069702 36.00202393 -25.07069702 36.00202393 -25.14282227 34.98388672 C-25.3307245 31.94838023 -25.44716092 28.91409323 -25.5625 25.875 C-25.63791016 24.82828125 -25.71332031 23.7815625 -25.79101562 22.703125 C-26.00784506 15.09000259 -26.00784506 15.09000259 -23.21801758 12.07275391 C-20.88111984 10.49853302 -18.53162951 9.23342905 -16 8 C-14.70381161 7.23108795 -13.41288825 6.45318879 -12.12890625 5.6640625 C-10.94201128 4.98105019 -9.75323959 4.30128746 -8.5625 3.625 C-7.95212891 3.27050781 -7.34175781 2.91601562 -6.71289062 2.55078125 C-2.24656129 0 -2.24656129 0 0 0 Z " fill="#5C889E" transform="translate(61,8)"/>
<path d="M0 0 C0 9.24 0 18.48 0 28 C-11.35199943 34.43741431 -22.70408886 40.87295076 -34.125 47.1875 C-34.94645508 47.64423096 -35.76791016 48.10096191 -36.61425781 48.5715332 C-37.38350586 48.99523193 -38.15275391 49.41893066 -38.9453125 49.85546875 C-39.61062988 50.22309326 -40.27594727 50.59071777 -40.96142578 50.96948242 C-43.24112307 52.12188988 -45.62828037 53.05131215 -48 54 C-48 45.09 -48 36.18 -48 27 C-41.26282877 29.24572374 -41.26282877 29.24572374 -38.45703125 30.9453125 C-37.55887695 31.47705078 -37.55887695 31.47705078 -36.64257812 32.01953125 C-35.41048245 32.76378541 -34.17871768 33.50858763 -32.94726562 34.25390625 C-29.23741964 36.47596283 -29.23741964 36.47596283 -25 37 C-25.07069702 36.00202393 -25.07069702 36.00202393 -25.14282227 34.98388672 C-25.3307245 31.94838023 -25.44716092 28.91409323 -25.5625 25.875 C-25.63791016 24.82828125 -25.71332031 23.7815625 -25.79101562 22.703125 C-26.00784506 15.09000259 -26.00784506 15.09000259 -23.21801758 12.07275391 C-20.88111984 10.49853302 -18.53162951 9.23342905 -16 8 C-14.70381161 7.23108795 -13.41288825 6.45318879 -12.12890625 5.6640625 C-10.94201128 4.98105019 -9.75323959 4.30128746 -8.5625 3.625 C-7.95212891 3.27050781 -7.34175781 2.91601562 -6.71289062 2.55078125 C-2.24656129 0 -2.24656129 0 0 0 Z " fill="#F6AE47" transform="translate(61,8)"/>
<path d="M0 0 C0.76344727 0.44923828 1.52689453 0.89847656 2.31347656 1.36132812 C3.15007813 1.84988281 3.98667969 2.3384375 4.84863281 2.84179688 C5.7084375 3.35355469 6.56824219 3.8653125 7.45410156 4.39257812 C8.76701172 5.16021484 8.76701172 5.16021484 10.10644531 5.94335938 C16.52840842 9.71688499 16.52840842 9.71688499 17.70410156 10.89257812 C17.79177269 12.96519889 17.81106029 15.04078107 17.80175781 17.11523438 C17.79853516 18.37529297 17.7953125 19.63535156 17.79199219 20.93359375 C17.7836356 22.27408921 17.77517064 23.614584 17.76660156 24.95507812 C17.76158816 26.29947754 17.75702498 27.64387872 17.75292969 28.98828125 C17.74109644 32.28975753 17.72461127 35.59114616 17.70410156 38.89257812 C16.87555664 38.41183838 16.04701172 37.93109863 15.19335938 37.43579102 C6.36174775 32.32248696 -2.59351155 27.45328872 -11.59082031 22.63793945 C-17.9361689 19.22694955 -24.15487798 15.65931852 -30.29589844 11.89257812 C-25.95696172 8.15724349 -21.26067553 5.38082494 -16.29589844 2.58007812 C-15.50183594 2.11279297 -14.70777344 1.64550781 -13.88964844 1.1640625 C-13.11621094 0.72771484 -12.34277344 0.29136719 -11.54589844 -0.15820312 C-10.84980469 -0.55692627 -10.15371094 -0.95564941 -9.43652344 -1.36645508 C-5.86981779 -2.60105267 -3.30646278 -1.5948655 0 0 Z " fill="#014365" transform="translate(43.2958984375,51.107421875)"/>
<path d="M0 0 C0 9.24 0 18.48 0 28 C-8.0556446 23.41933934 -16.08221716 18.81634716 -24 14 C-21.76118156 11.56952479 -19.47483712 9.95575471 -16.62109375 8.30078125 C-15.78255859 7.81416016 -14.94402344 7.32753906 -14.08007812 6.82617188 C-13.20802734 6.32666016 -12.33597656 5.82714844 -11.4375 5.3125 C-10.56158203 4.80138672 -9.68566406 4.29027344 -8.78320312 3.76367188 C-2.25582026 0 -2.25582026 0 0 0 Z " fill="#FEC47C" transform="translate(61,8)"/>
<path d="M0 0 C13.86206897 6.93103448 13.86206897 6.93103448 18.75 9.75 C19.75546875 10.32234375 20.7609375 10.8946875 21.796875 11.484375 C22.88742188 12.23460938 22.88742188 12.23460938 24 13 C24 13.66 24 14.32 24 15 C20.37871557 17.00678401 16.75238357 19.0042648 13.125 21 C12.09246094 21.57234375 11.05992188 22.1446875 9.99609375 22.734375 C9.00996094 23.27578125 8.02382813 23.8171875 7.0078125 24.375 C5.64100342 25.12910156 5.64100342 25.12910156 4.24658203 25.8984375 C2 27 2 27 0 27 C0 18.09 0 9.18 0 0 Z " fill="#84A6B6" transform="translate(13,89)"/>
<path d="M0 0 C13.5 6.75 13.5 6.75 18.25 9.875 C19.16265625 10.47054687 20.0753125 11.06609375 21.015625 11.6796875 C21.67046875 12.11539063 22.3253125 12.55109375 23 13 C19.33198327 17.30112647 14.70864256 19.60385225 9.8125 22.25 C8.98041016 22.70890625 8.14832031 23.1678125 7.29101562 23.640625 C1.15715681 27 1.15715681 27 0 27 C0 18.09 0 9.18 0 0 Z " fill="#336B86" transform="translate(37,76)"/>
<path d="M0 0 C4.07122217 1.35707406 6.80573414 2.28344048 10.3046875 4.3828125 C11.05234375 4.82753906 11.8 5.27226563 12.5703125 5.73046875 C13.71113281 6.42076172 13.71113281 6.42076172 14.875 7.125 C16.050625 7.82689453 16.050625 7.82689453 17.25 8.54296875 C19.16982472 9.69018108 21.08630561 10.8426007 23 12 C20.86242476 14.30479485 18.75491625 15.86457167 16.0234375 17.41015625 C15.270625 17.84263672 14.5178125 18.27511719 13.7421875 18.72070312 C12.15647394 19.61953581 10.57053421 20.5179696 8.984375 21.41601562 C8.23414063 21.84720703 7.48390625 22.27839844 6.7109375 22.72265625 C5.67912354 23.30672241 5.67912354 23.30672241 4.62646484 23.90258789 C2.83731029 24.91595682 2.83731029 24.91595682 2 27 C1.34 27 0.68 27 0 27 C0 18.09 0 9.18 0 0 Z " fill="#EF921E" transform="translate(13,35)"/>
<path d="M0 0 C0.33 0 0.66 0 1 0 C1 8.91 1 17.82 1 27 C0.67 27 0.34 27 0 27 C0 18.09 0 9.18 0 0 Z " fill="#91B3C3" transform="translate(11,89)"/>
<path d="M0 0 C0.33 0 0.66 0 1 0 C1 8.91 1 17.82 1 27 C0.67 27 0.34 27 0 27 C0 18.09 0 9.18 0 0 Z " fill="#F69D30" transform="translate(11,36)"/>
<path d="M0 0 C0.33 0 0.66 0 1 0 C1 8.91 1 17.82 1 27 C0.67 27 0.34 27 0 27 C0 18.09 0 9.18 0 0 Z " fill="#FEDF95" transform="translate(62,9)"/>
<path d="M0 0 C0.33 0 0.66 0 1 0 C1 8.58 1 17.16 1 26 C0.67 26 0.34 26 0 26 C0 17.42 0 8.84 0 0 Z " fill="#215679" transform="translate(62,63)"/>
<path d="M0 0 C0.66 0.33 1.32 0.66 2 1 C1.01 1 0.02 1 -1 1 C-0.67 0.67 -0.34 0.34 0 0 Z " fill="#497992" transform="translate(32,75)"/>
<path d="M0 0 C0.99 0.33 1.98 0.66 3 1 C2.01 1 1.02 1 0 1 C0 0.67 0 0.34 0 0 Z " fill="#525C4E" transform="translate(40,48)"/>
<path d="M0 0 C2 1 2 1 2 1 Z " fill="#96B8C8" transform="translate(15,116)"/>
<path d="M0 0 C2 1 2 1 2 1 Z " fill="#9FC1D1" transform="translate(22,112)"/>
<path d="M0 0 C2 1 2 1 2 1 Z " fill="#99BCCC" transform="translate(24,111)"/>
<path d="M0 0 C2 1 2 1 2 1 Z " fill="#497D97" transform="translate(38,103)"/>
<path d="M0 0 C2 1 2 1 2 1 Z " fill="#3B738E" transform="translate(40,102)"/>
<path d="M0 0 C2 1 2 1 2 1 Z " fill="#3F7591" transform="translate(45,99)"/>
<path d="M0 0 C2 1 2 1 2 1 Z " fill="#3B728D" transform="translate(47,98)"/>
<path d="M0 0 C2 1 2 1 2 1 Z " fill="#366F8A" transform="translate(57,92)"/>
<path d="M0 0 C2 1 2 1 2 1 Z " fill="#6390A5" transform="translate(19,83)"/>
<path d="M0 0 C2 1 2 1 2 1 Z " fill="#0C496C" transform="translate(25,71)"/>
<path d="M0 0 C2 1 2 1 2 1 Z " fill="#104B6F" transform="translate(18,67)"/>
<path d="M0 0 C2 1 2 1 2 1 Z " fill="#034668" transform="translate(53,56)"/>
<path d="M0 0 C2 1 2 1 2 1 Z " fill="#054769" transform="translate(43,50)"/>
<path d="M0 0 C2 1 2 1 2 1 Z " fill="#FEC760" transform="translate(42,47)"/>
<path d="M0 0 C2 1 2 1 2 1 Z " fill="#FDB750" transform="translate(47,44)"/>
<path d="M0 0 C2 1 2 1 2 1 Z " fill="#FEBF58" transform="translate(49,43)"/>
<path d="M0 0 C2 1 2 1 2 1 Z " fill="#F89B2B" transform="translate(27,41)"/>
<path d="M0 0 C2 1 2 1 2 1 Z " fill="#FEC760" transform="translate(54,40)"/>
<path d="M0 0 C2 1 2 1 2 1 Z " fill="#F89928" transform="translate(20,37)"/>
<path d="M0 0 C2 1 2 1 2 1 Z " fill="#FED28A" transform="translate(38,18)"/>
<path d="M0 0 C2 1 2 1 2 1 Z " fill="#FECE85" transform="translate(47,13)"/>
<path d="M0 0 C2 1 2 1 2 1 Z " fill="#FECE84" transform="translate(56,8)"/>
<path d="" fill="#9EC0D2" transform="translate(0,0)"/>
<path d="" fill="#8FB0C0" transform="translate(0,0)"/>
<path d="" fill="#90B2C2" transform="translate(0,0)"/>
<path d="" fill="#9FC2D2" transform="translate(0,0)"/>
<path d="" fill="#8FB0C1" transform="translate(0,0)"/>
<path d="" fill="#8FB2C1" transform="translate(0,0)"/>
<path d="" fill="#93B6C7" transform="translate(0,0)"/>
<path d="" fill="#93B6C7" transform="translate(0,0)"/>
<path d="" fill="#93B4C5" transform="translate(0,0)"/>
<path d="" fill="#88AABA" transform="translate(0,0)"/>
<path d="" fill="#346880" transform="translate(0,0)"/>
<path d="" fill="#38718C" transform="translate(0,0)"/>
<path d="" fill="#427994" transform="translate(0,0)"/>
<path d="" fill="#38718C" transform="translate(0,0)"/>
<path d="" fill="#3C7690" transform="translate(0,0)"/>
<path d="" fill="#3C7690" transform="translate(0,0)"/>
<path d="" fill="#3B738F" transform="translate(0,0)"/>
<path d="" fill="#38718C" transform="translate(0,0)"/>
<path d="" fill="#326B86" transform="translate(0,0)"/>
<path d="" fill="#6E9AB0" transform="translate(0,0)"/>
<path d="" fill="#6894A8" transform="translate(0,0)"/>
<path d="" fill="#6894AA" transform="translate(0,0)"/>
<path d="" fill="#6490A6" transform="translate(0,0)"/>
<path d="" fill="#6894A8" transform="translate(0,0)"/>
<path d="" fill="#6894AA" transform="translate(0,0)"/>
<path d="" fill="#6894AA" transform="translate(0,0)"/>
<path d="" fill="#6490A6" transform="translate(0,0)"/>
<path d="" fill="#6490A4" transform="translate(0,0)"/>
<path d="" fill="#003E60" transform="translate(0,0)"/>
<path d="" fill="#044668" transform="translate(0,0)"/>
<path d="" fill="#124C6E" transform="translate(0,0)"/>
<path d="" fill="#014567" transform="translate(0,0)"/>
<path d="" fill="#044668" transform="translate(0,0)"/>
<path d="" fill="#0B486A" transform="translate(0,0)"/>
<path d="" fill="#0A486A" transform="translate(0,0)"/>
<path d="" fill="#024466" transform="translate(0,0)"/>
<path d="" fill="#2C505C" transform="translate(0,0)"/>
<path d="" fill="#07476A" transform="translate(0,0)"/>
<path d="" fill="#064768" transform="translate(0,0)"/>
<path d="" fill="#014567" transform="translate(0,0)"/>
<path d="" fill="#06486A" transform="translate(0,0)"/>
<path d="" fill="#08486A" transform="translate(0,0)"/>
<path d="" fill="#0B4A6C" transform="translate(0,0)"/>
<path d="" fill="#09486A" transform="translate(0,0)"/>
<path d="" fill="#044668" transform="translate(0,0)"/>
<path d="" fill="#FEBE57" transform="translate(0,0)"/>
<path d="" fill="#FEBD56" transform="translate(0,0)"/>
<path d="" fill="#EE941E" transform="translate(0,0)"/>
<path d="" fill="#FEA032" transform="translate(0,0)"/>
<path d="" fill="#FEBD56" transform="translate(0,0)"/>
<path d="" fill="#FEA232" transform="translate(0,0)"/>
<path d="" fill="#FEC35C" transform="translate(0,0)"/>
<path d="" fill="#FC9E2C" transform="translate(0,0)"/>
<path d="" fill="#FFC15A" transform="translate(0,0)"/>
<path d="" fill="#FC9E2C" transform="translate(0,0)"/>
<path d="" fill="#FFBB55" transform="translate(0,0)"/>
<path d="" fill="#F69826" transform="translate(0,0)"/>
<path d="" fill="#FEC26C" transform="translate(0,0)"/>
<path d="" fill="#FC9E2C" transform="translate(0,0)"/>
<path d="" fill="#FC9E2C" transform="translate(0,0)"/>
<path d="" fill="#FCA02C" transform="translate(0,0)"/>
<path d="" fill="#FEAC3E" transform="translate(0,0)"/>
<path d="" fill="#FECE70" transform="translate(0,0)"/>
<path d="" fill="#FED48C" transform="translate(0,0)"/>
<path d="" fill="#FED48C" transform="translate(0,0)"/>
<path d="" fill="#FED28A" transform="translate(0,0)"/>
<path d="" fill="#FECE84" transform="translate(0,0)"/>
<path d="" fill="#FED48A" transform="translate(0,0)"/>
<path d="" fill="#FED28A" transform="translate(0,0)"/>
<path d="" fill="#FED48A" transform="translate(0,0)"/>
<path d="" fill="#FECE84" transform="translate(0,0)"/>
<path d="" fill="#FEDA92" transform="translate(0,0)"/>
</svg>
